<svg width="67" height="30" viewBox="0 0 67 30" fill="none" xmlns="http://www.w3.org/2000/svg">
<path d="M59.9008 30H52.763C52.1976 30 51.7854 29.8704 51.5263 29.6113C51.2671 29.3522 51.1376 28.9399 51.1376 28.3745V21.2014C51.1376 20.8952 51.1729 20.636 51.2436 20.424C51.3378 20.1884 51.4556 20.0118 51.5969 19.894L56.1906 16.0424C56.3084 15.9482 56.4615 15.8775 56.6499 15.8304C56.8384 15.7597 57.0622 15.7244 57.3213 15.7244H64.4591C65.0245 15.7244 65.4367 15.8539 65.6959 16.1131C65.955 16.3486 66.0846 16.7609 66.0846 17.3498V24.523C66.0846 24.8292 66.0375 25.0883 65.9432 25.3003C65.8726 25.5123 65.7548 25.689 65.5899 25.8304L60.9962 29.6466C60.902 29.7409 60.7489 29.8233 60.5369 29.894C60.3484 29.9646 60.1364 30 59.9008 30ZM64.4591 25.795C64.9067 25.795 65.2247 25.7008 65.4132 25.5124C65.6252 25.3003 65.7312 24.9705 65.7312 24.523V17.3498C65.7312 16.9022 65.6252 16.5842 65.4132 16.3957C65.2247 16.1837 64.9067 16.0777 64.4591 16.0777H57.3213C56.8737 16.0777 56.5439 16.1837 56.3319 16.3957C56.1435 16.5842 56.0492 16.9022 56.0492 17.3498V24.523C56.0492 24.9705 56.1435 25.3003 56.3319 25.5124C56.5439 25.7008 56.8737 25.795 57.3213 25.795H64.4591ZM60.7135 22.6148V19.2579H61.0669V22.6148H60.7135Z" fill="black"/>
<path d="M43.2034 30H34.5815C31.4955 30 29.2104 29.1991 27.7263 27.5972C26.2658 25.9953 25.5355 23.9223 25.5355 21.3781V11.4488C25.5355 10.1531 25.724 9.03416 26.1009 8.09187C26.4778 7.12603 27.0314 6.32509 27.7617 5.68905L32.3553 1.83746C33.0856 1.22497 34.0161 0.765606 35.1468 0.459364C36.2776 0.153121 37.6085 0 39.1398 0H47.7617C48.327 0 48.7393 0.129564 48.9984 0.388692C49.2575 0.647821 49.3871 1.06007 49.3871 1.62544V5.90106C49.3871 6.2073 49.34 6.46643 49.2458 6.67845C49.1751 6.89046 49.0573 7.06714 48.8924 7.20848L44.2988 11.0247C44.2045 11.119 44.0514 11.2014 43.8394 11.2721C43.651 11.3428 43.4389 11.3781 43.2034 11.3781H38.8571V17.3498C38.8571 17.8445 39.0102 18.1979 39.3164 18.4099C39.6227 18.5984 40.0703 18.6926 40.6592 18.6926H47.7617C48.327 18.6926 48.7393 18.8221 48.9984 19.0813C49.2575 19.3404 49.3871 19.7527 49.3871 20.318V24.523C49.3871 24.8292 49.34 25.0883 49.2458 25.3004C49.1751 25.5124 49.0573 25.689 48.8924 25.8304L44.2988 29.6466C44.2045 29.7409 44.0514 29.8233 43.8394 29.894C43.651 29.9647 43.4389 30 43.2034 30ZM47.7617 25.7951C48.2093 25.7951 48.5273 25.7008 48.7157 25.5124C48.9277 25.3004 49.0338 24.9706 49.0338 24.523V20.318C49.0338 19.8704 48.9277 19.5524 48.7157 19.364C48.5273 19.1519 48.2093 19.0459 47.7617 19.0459H40.6592C39.9289 19.0459 39.3871 18.9164 39.0338 18.6572C38.6804 18.3746 38.5037 17.9388 38.5037 17.3498V8.93993C38.5037 8.351 38.6804 7.91519 39.0338 7.63251C39.3871 7.32627 39.9289 7.17314 40.6592 7.17314H47.7617C48.2093 7.17314 48.5273 7.07892 48.7157 6.89046C48.9277 6.67845 49.0338 6.34864 49.0338 5.90106V1.62544C49.0338 1.17786 48.9277 0.859835 48.7157 0.671378C48.5273 0.459364 48.2093 0.353357 47.7617 0.353357H39.1398C36.1951 0.353357 34.0043 0.954063 32.5673 2.15548C31.1539 3.33333 30.4472 5.14723 30.4472 7.59717V18.5866C30.4472 21.0365 31.1539 22.8504 32.5673 24.0283C34.0043 25.2061 36.1951 25.7951 39.1398 25.7951H47.7617ZM45.8182 22.2615V22.6148H39.9171C37.6321 22.6148 36.1127 22.2615 35.3588 21.5548C34.6286 20.8481 34.2634 19.682 34.2634 18.0565V8.16255C34.2634 6.48999 34.6404 5.30035 35.3942 4.59364C36.148 3.88692 37.6557 3.53357 39.9171 3.53357H45.8182V3.88693H39.9171C37.8441 3.88693 36.4425 4.21673 35.7122 4.87633C34.9819 5.51237 34.6168 6.60777 34.6168 8.16255V18.0565C34.6168 19.5877 34.9702 20.6714 35.6769 21.3074C36.3836 21.9435 37.797 22.2615 39.9171 22.2615H45.8182Z" fill="black"/>
<path d="M17.6678 30H9.04594C5.95995 30 3.67491 29.1991 2.19081 27.5972C0.730271 25.9953 0 23.9223 0 21.3781V11.4488C0 10.1531 0.188457 9.03416 0.565371 8.09187C0.942285 7.12603 1.49588 6.32509 2.22615 5.68905L6.81979 1.83746C7.55006 1.22497 8.48057 0.765606 9.61131 0.459364C10.7421 0.153121 12.073 0 13.6042 0H22.2261C22.7915 0 23.2038 0.129564 23.4629 0.388692C23.722 0.647821 23.8516 1.06007 23.8516 1.62544V5.90106C23.8516 6.2073 23.8045 6.46643 23.7102 6.67845C23.6396 6.89046 23.5218 7.06714 23.3569 7.20848L18.7632 11.0247C18.669 11.119 18.5159 11.2014 18.3039 11.2721C18.1154 11.3428 17.9034 11.3781 17.6678 11.3781H13.3216V17.3498C13.3216 17.8445 13.4747 18.1979 13.7809 18.4099C14.0872 18.5984 14.5347 18.6926 15.1237 18.6926H22.2261C22.7915 18.6926 23.2038 18.8221 23.4629 19.0813C23.722 19.3404 23.8516 19.7527 23.8516 20.318V24.523C23.8516 24.8292 23.8045 25.0883 23.7102 25.3004C23.6396 25.5124 23.5218 25.689 23.3569 25.8304L18.7632 29.6466C18.669 29.7409 18.5159 29.8233 18.3039 29.894C18.1154 29.9647 17.9034 30 17.6678 30ZM22.2261 25.7951C22.6737 25.7951 22.9918 25.7008 23.1802 25.5124C23.3922 25.3004 23.4982 24.9706 23.4982 24.523V20.318C23.4982 19.8704 23.3922 19.5524 23.1802 19.364C22.9918 19.1519 22.6737 19.0459 22.2261 19.0459H15.1237C14.3934 19.0459 13.8516 18.9164 13.4982 18.6572C13.1449 18.3746 12.9682 17.9388 12.9682 17.3498V8.93993C12.9682 8.351 13.1449 7.91519 13.4982 7.63251C13.8516 7.32627 14.3934 7.17314 15.1237 7.17314H22.2261C22.6737 7.17314 22.9918 7.07892 23.1802 6.89046C23.3922 6.67845 23.4982 6.34864 23.4982 5.90106V1.62544C23.4982 1.17786 23.3922 0.859835 23.1802 0.671378C22.9918 0.459364 22.6737 0.353357 22.2261 0.353357H13.6042C10.6596 0.353357 8.46879 0.954063 7.0318 2.15548C5.61837 3.33333 4.91166 5.14723 4.91166 7.59717V18.5866C4.91166 21.0365 5.61837 22.8504 7.0318 24.0283C8.46879 25.2061 10.6596 25.7951 13.6042 25.7951H22.2261ZM20.2827 22.2615V22.6148H14.3816C12.0966 22.6148 10.5771 22.2615 9.82332 21.5548C9.09305 20.8481 8.72792 19.682 8.72792 18.0565V8.16255C8.72792 6.48999 9.10483 5.30035 9.85866 4.59364C10.6125 3.88692 12.1201 3.53357 14.3816 3.53357H20.2827V3.88693H14.3816C12.3086 3.88693 10.9069 4.21673 10.1767 4.87633C9.44641 5.51237 9.08127 6.60777 9.08127 8.16255V18.0565C9.08127 19.5877 9.43463 20.6714 10.1413 21.3074C10.8481 21.9435 12.2615 22.2615 14.3816 22.2615H20.2827Z" fill="black"/>
</svg>
