<svg width="22" height="22" viewBox="0 0 22 22" fill="none" xmlns="http://www.w3.org/2000/svg">
<g id="Frame">
<path id="Vector" d="M16.8831 4.21667H15.515V3.66667C15.515 3.11667 15.1501 2.75 14.6028 2.75C14.0556 2.75 13.6908 3.11667 13.6908 3.66667V4.21667H10.2247C9.67747 4.21667 9.31264 4.58333 9.31264 5.13333C9.31264 5.68333 9.67747 6.05 10.2247 6.05H13.7819V6.6C13.7819 7.15 14.1468 7.51667 14.6941 7.51667C15.2413 7.51667 15.6062 7.15 15.6062 6.6V6.05H16.9743C17.6128 6.05 18.2513 6.6 18.2513 7.33333V8.61667H3.65758V7.33333C3.65758 6.6 4.29606 6.05 5.02574 6.05H6.39391V6.6C6.39391 7.15 6.75875 7.51667 7.306 7.51667C7.85325 7.51667 8.21814 7.15 8.21814 6.6V5.13333V3.66667C8.21814 3.11667 7.85325 2.75 7.306 2.75C6.75875 2.75 6.39391 3.11667 6.39391 3.66667V4.21667H5.02574C3.20154 4.21667 1.83337 5.59167 1.83337 7.33333V16.1333C1.83337 17.875 3.20154 19.25 5.02574 19.25H16.9743C18.7073 19.25 20.1667 17.875 20.1667 16.1333V7.33333C20.0755 5.59167 18.7073 4.21667 16.8831 4.21667ZM16.8831 17.4167H5.02574C4.29606 17.4167 3.65758 16.8667 3.65758 16.1333V10.45H18.2513V16.1333C18.2513 16.8667 17.6128 17.4167 16.8831 17.4167Z" fill="#B5ABAB"/>
</g>
</svg>
