<svg width="36" height="36" viewBox="0 0 36 36" fill="none" xmlns="http://www.w3.org/2000/svg">
<path d="M32.9868 6.3C31.9272 5.55 30.5647 5.55 29.5051 6L23.1472 8.7L13.7617 4.65C13.4589 4.5 13.3076 4.5 13.1562 4.5H13.0048C12.8534 4.5 12.702 4.5 12.5507 4.65L4.52758 7.95C2.71103 8.7 1.5 10.5 1.5 12.6V26.4C1.5 27.75 2.10552 28.95 3.31655 29.7C3.92206 30.15 4.67896 30.3 5.43585 30.3C5.88999 30.3 6.4955 30.15 6.94964 30L9.82584 28.8C10.5827 28.5 10.8855 27.6 10.5827 26.85C10.28 26.1 9.3717 25.8 8.61481 26.1L5.73861 27.3C5.43585 27.45 5.13309 27.3 4.98171 27.3C4.83034 27.15 4.52758 26.85 4.52758 26.4V12.6C4.52758 11.7 4.98171 10.95 5.73861 10.65L11.491 8.25V25.8C11.491 26.4 11.7938 27 12.3993 27.15L22.5417 31.35C22.693 31.35 22.8444 31.5 22.9958 31.5C23.1472 31.5 23.2986 31.5 23.4499 31.35L31.3216 28.05C33.1382 27.3 34.3492 25.35 34.3492 23.4V9.6C34.8034 8.25 34.1978 7.05 32.9868 6.3ZM14.67 8.25L21.7848 11.25V14.4V27.75L14.67 24.75V8.25ZM31.7758 23.4C31.7758 24.3 31.3216 25.05 30.5647 25.35L24.8123 27.75V14.4V11.25L30.7161 8.7C31.0189 8.55 31.3216 8.7 31.473 8.7C31.473 8.85 31.7758 9.15 31.7758 9.6V23.4Z" fill="#B5ABAB"/>
</svg>
